<svg width="136" height="70" viewBox="0 0 136 70" fill="none" xmlns="http://www.w3.org/2000/svg">
<path d="M30.7448 51.308C31.8488 51.308 32.8976 51.0872 33.836 50.6456C34.7744 50.2592 35.6576 49.652 36.3752 48.9344C37.0928 48.2168 37.7 47.3336 38.1416 46.3952C38.528 45.4568 38.7488 44.408 38.7488 43.304C38.7488 42.2 38.528 41.1512 38.1416 40.1576C37.7 39.164 37.148 38.2808 36.4304 37.508C35.7128 36.7904 34.8848 36.1832 33.9464 35.7416C33.008 35.3 31.9592 35.0792 30.9104 35.0792H22.52V43.5248C22.52 44.5736 22.7408 45.5672 23.1824 46.5056C23.624 47.444 24.2312 48.272 25.004 48.9896C25.7216 49.7072 26.6048 50.2592 27.5984 50.6456C28.592 51.0872 29.6408 51.308 30.7448 51.308ZM22.52 30.3872H27.8192C28.2608 30.3872 28.7024 30.2768 29.0888 30.0008C29.4752 29.78 29.8616 29.4488 30.1928 29.0624C30.524 28.676 30.8 28.2344 31.0208 27.7376C31.1864 27.2408 31.2968 26.6888 31.2968 26.192C31.2968 25.6952 31.1864 25.1984 31.0208 24.7016C30.8552 24.2048 30.5792 23.7632 30.3032 23.3768C29.972 22.9904 29.5856 22.7144 29.1992 22.4936C28.8128 22.2728 28.3712 22.1624 27.9296 22.1624H22.52V30.3872ZM34.6088 31.0496C35.9336 31.4912 37.148 32.0984 38.252 32.8712C39.3008 33.6992 40.2392 34.6376 41.012 35.6864C41.7848 36.7904 42.392 37.9496 42.8336 39.2192C43.22 40.4888 43.4408 41.8688 43.4408 43.2488C43.4408 45.0152 43.1096 46.6712 42.4472 48.2168C41.7296 49.7624 40.8464 51.0872 39.6872 52.2464C38.528 53.4056 37.148 54.344 35.6024 55.0064C34.0568 55.6688 32.4008 56 30.6896 56C29.1992 56 27.7088 55.724 26.3288 55.2272C24.9488 54.7304 23.6792 54.0128 22.52 53.0744V56H17.828V17.36H27.9848C29.0336 17.36 30.0824 17.5808 31.0208 18.0776C31.9592 18.5744 32.7872 19.2368 33.5048 20.0648C34.2224 20.8928 34.8296 21.8864 35.2712 22.9352C35.6576 24.0392 35.8784 25.1984 35.8784 26.4128C35.8784 28.124 35.4368 29.6696 34.6088 31.0496ZM58.5734 30.3872H66.5222V56H62.603V53.0744C60.5606 55.0064 58.0214 55.9448 54.9854 55.9448C48.4166 55.9448 45.1046 51.4736 45.1046 42.476V30.3872H49.8518V41.924C49.8518 48.1616 51.7838 51.308 55.6478 51.308C57.5246 51.308 59.015 50.5904 60.119 49.1C61.223 47.6648 61.775 45.6776 61.775 43.1936V35.0792H58.5734V30.3872ZM79.7684 30.3872C83.0252 30.3872 85.454 31.5464 87.11 33.8096C88.766 36.0728 89.594 39.44 89.594 43.856V56H84.8468C84.902 54.62 84.902 53.1848 84.9572 51.7496C85.0124 50.3696 85.0124 48.7136 85.0124 46.892C85.0124 45.9536 85.0124 44.8496 84.9572 43.4696C84.902 42.1448 84.6812 40.8752 84.2948 39.6056C83.9084 38.336 83.3564 37.2872 82.5284 36.3488C81.7004 35.4656 80.5412 35.024 78.9956 35.024C77.174 35.024 75.7388 35.6864 74.5796 37.0664C73.4204 38.4464 72.8684 40.268 72.8684 42.476V51.308H76.1252V56H68.1764V30.3872H72.0956V33.2576C74.0828 31.3256 76.622 30.3872 79.7684 30.3872ZM106.096 36.5144C108.138 37.6736 109.684 39.164 110.677 40.9856C111.671 42.8624 112.168 44.96 112.168 47.2784V56H107.531V47.2784C107.531 46.1192 107.31 45.0704 106.869 44.132C106.427 43.1936 105.875 42.4208 105.157 41.7032C104.44 41.0408 103.557 40.4888 102.618 40.1024C101.68 39.716 100.686 39.5504 99.6374 39.5504C98.9198 39.5504 98.2574 39.6608 97.6502 39.8264C97.043 39.992 96.491 40.2128 95.9942 40.4888V56H91.3022V17.36H100.465V21.5H95.9942V34.9688L109.794 30.2768L111.395 34.8584L106.096 36.5144ZM118.527 30.3872V33.3128C119.686 32.3744 120.956 31.6016 122.336 31.1048C123.716 30.608 125.151 30.3872 126.641 30.3872V35.0792C125.482 35.0792 124.433 35.3 123.495 35.6864C122.501 36.128 121.618 36.7352 120.901 37.4528C120.183 38.1704 119.576 39.0536 119.189 39.992C118.748 40.9856 118.527 42.0344 118.527 43.1936V56H113.835V30.3872H118.527Z" fill="white"/>
<g opacity="0.7">
<path d="M2.1724 30.5525L1.72885 31.2257L2.05693 31.962L1.38379 31.5185L0.647434 31.8465L1.09099 31.1734L0.762908 30.437L1.43605 30.8806L2.1724 30.5525Z" fill="white"/>
<path d="M62.3133 18.32L60.734 18.6447L60.1566 20.15L59.8319 18.5708L58.3266 17.9934L59.9059 17.6687L60.4832 16.1634L60.8079 17.7426L62.3133 18.32Z" fill="white"/>
<path d="M40.1492 65.32L38.57 65.6447L37.9926 67.15L37.6679 65.5708L36.1626 64.9934L37.7418 64.6687L38.3192 63.1634L38.6439 64.7426L40.1492 65.32Z" fill="white"/>
<path d="M106.345 62.525L105.458 63.8712L106.114 65.3439L104.768 64.4568L103.295 65.113L104.182 63.7667L103.526 62.294L104.872 63.1811L106.345 62.525Z" fill="white"/>
<path d="M133.755 15.525L132.868 16.8712L133.524 18.3439L132.178 17.4568L130.705 18.113L131.592 16.7667L130.936 15.294L132.282 16.1811L133.755 15.525Z" fill="white"/>
<path d="M102.172 0.762483L101.729 1.43562L102.057 2.17197L101.384 1.72842L100.647 2.0565L101.091 1.38336L100.763 0.647009L101.436 1.09056L102.172 0.762483Z" fill="white"/>
</g>
</svg>
